<?xml version="1.0" standalone="no"?>
<!DOCTYPE svg PUBLIC "-//W3C//DTD SVG 20010904//EN"
 "http://www.w3.org/TR/2001/REC-SVG-20010904/DTD/svg10.dtd">
<svg version="1.0" xmlns="http://www.w3.org/2000/svg"
 width="512.000000pt" height="512.000000pt" viewBox="0 0 512.000000 512.000000"
 preserveAspectRatio="xMidYMid meet">
<metadata>
Created by potrace 1.11, written by Peter Selinger 2001-2013
</metadata>
<g transform="translate(0.000000,512.000000) scale(0.100000,-0.100000)"
fill="#000000" stroke="none">
<path d="M0 2560 l0 -2560 2560 0 2560 0 0 2560 0 2560 -2560 0 -2560 0 0
-2560z m2151 10 c340 -729 627 -1344 639 -1367 l20 -43 -149 0 -148 0 -209
450 -209 449 -605 1 -605 0 -214 -450 -214 -450 -148 0 -148 0 43 93 c24 50
297 625 606 1277 309 652 582 1227 606 1278 l43 93 37 -3 36 -3 619 -1325z
m1931 1307 c122 -24 204 -55 282 -108 122 -81 206 -193 253 -333 23 -70 27
-98 27 -206 0 -141 -13 -202 -70 -310 -45 -86 -111 -160 -197 -221 -66 -46
-68 -49 -46 -58 193 -73 309 -150 393 -262 102 -134 140 -253 141 -434 0 -224
-63 -379 -215 -534 -108 -110 -220 -173 -390 -219 -95 -26 -97 -26 -562 -30
l-468 -3 0 1371 0 1372 388 -5 c289 -4 407 -9 464 -20z"/>
<path d="M1477 3309 c-8 -19 -114 -243 -236 -498 -121 -256 -221 -469 -221
-473 0 -4 212 -8 470 -8 259 0 470 3 470 7 0 7 -459 995 -466 1002 -1 2 -9
-12 -17 -30z"/>
<path d="M3500 3191 l0 -441 143 0 c325 0 479 42 598 163 197 200 159 546 -73
652 -110 50 -158 57 -420 62 l-248 5 0 -441z"/>
<path d="M3500 1955 l0 -525 233 0 c433 0 569 33 707 170 158 157 193 357 98
559 -62 131 -219 246 -390 286 -94 21 -274 35 -475 35 l-173 0 0 -525z"/>
</g>
</svg>
